<svg id="svg" version="1.1" xmlns="http://www.w3.org/2000/svg" xmlns:xlink="http://www.w3.org/1999/xlink" width="24" height="24" viewBox="0, 0, 400,400">
    <g id="svgg">
        <path id="path0" d="M112.450 14.661 L 110.031 16.822 91.331 136.341 C 81.046 202.076,72.725 256.306,72.839 256.851 C 73.049 257.853,165.625 92.934,165.625 91.557 C 165.625 89.805,125.596 15.852,123.785 14.258 C 120.812 11.641,115.623 11.826,112.450 14.661 M194.331 67.383 C 192.599 69.275,70.609 285.340,66.303 294.141 C 65.883 295.000,103.864 257.207,150.705 210.156 C 197.547 163.105,235.881 124.258,235.893 123.828 C 235.944 121.883,207.593 68.967,205.441 66.992 C 201.974 63.810,197.455 63.969,194.331 67.383 M279.048 98.601 C 259.741 117.191,62.500 311.947,62.506 312.415 C 62.516 313.160,188.349 385.652,191.328 386.629 C 194.979 387.827,204.429 387.663,208.149 386.337 C 214.264 384.159,337.500 312.996,337.500 311.643 C 337.500 310.309,301.921 98.720,301.140 95.408 C 300.288 91.799,296.599 89.063,292.584 89.063 C 289.005 89.063,288.818 89.194,279.048 98.601 " fill="rgba(255,255,255,1)">
        </path>
    </g>
</svg>